HIERARCHY
ROOT root
{
	OFFSET	0	13.1	24.9
	CHANNELS 6  Xposition Yposition Zposition Xrotation Yrotation Zrotation
	JOINT spine_1
	{
		OFFSET	0	9.99999	0
		CHANNELS 3  Xrotation Yrotation Zrotation
		JOINT spine_2
		{
			OFFSET	0	112	-10
			CHANNELS 3  Xrotation Yrotation Zrotation
			JOINT spine_3
			{
				OFFSET	0	206.5	19.3
				CHANNELS 3  Xrotation Yrotation Zrotation
				JOINT spine_4
				{
					OFFSET	0	110.4	14.6
					CHANNELS 3  Xrotation Yrotation Zrotation
					JOINT neck_1
					{
						OFFSET	0	71.8	-50.3
						CHANNELS 3  Xrotation Yrotation Zrotation
						JOINT neck_2
						{
							OFFSET	0	86.2	-25.8
							CHANNELS 3  Xrotation Yrotation Zrotation
							JOINT head_ee
							{
								OFFSET	0	179.8	-8.7
								CHANNELS 3  Xrotation Yrotation Zrotation
								End Site
								{
									OFFSET	1	0	0
								}
							}
						}
					}
					JOINT left_clavicle
					{
						OFFSET	-43.2	22.4	-70.8
						CHANNELS 3  Xrotation Yrotation Zrotation
						JOINT left_shoulder
						{
							OFFSET	-93.9	-5.79999	48.7
							CHANNELS 3  Xrotation Yrotation Zrotation
							JOINT left_elbow
							{
								OFFSET	-291.4	-30.8	15.2
								CHANNELS 3  Xrotation Yrotation Zrotation
								JOINT left_lowarm_twist
								{
									OFFSET	-110.7	-3.89999	13.6
									CHANNELS 3  Xrotation Yrotation Zrotation
									JOINT left_hand
									{
										OFFSET	-110.7	-3.89999	13.6
										CHANNELS 3  Xrotation Yrotation Zrotation
										JOINT left_ee
										{
											OFFSET	-80.8	-5.10001	12.1
											CHANNELS 3  Xrotation Yrotation Zrotation
											End Site
											{
												OFFSET	1	0	0
											}
										}
									}
								}
							}
						}
					}
					JOINT right_clavicle
					{
						OFFSET	43.2	22.4	-70.8
						CHANNELS 3  Xrotation Yrotation Zrotation
						JOINT right_shoulder
						{
							OFFSET	93.9	-5.79999	48.7
							CHANNELS 3  Xrotation Yrotation Zrotation
							JOINT right_elbow
							{
								OFFSET	291.4	-30.8	15.2
								CHANNELS 3  Xrotation Yrotation Zrotation
								JOINT right_lowarm_twist
								{
									OFFSET	110.7	-3.89999	13.6
									CHANNELS 3  Xrotation Yrotation Zrotation
									JOINT right_hand
									{
										OFFSET	110.7	-3.89999	13.6
										CHANNELS 3  Xrotation Yrotation Zrotation
										JOINT right_ee
										{
											OFFSET	80.8	-5.10001	12.1
											CHANNELS 3  Xrotation Yrotation Zrotation
											End Site
											{
												OFFSET	1	0	0
											}
										}
									}
								}
							}
						}
					}
				}
			}
		}
	}
	JOINT left_hip
	{
		OFFSET	-82.8	-127.5	0.300001
		CHANNELS 3  Xrotation Yrotation Zrotation
		JOINT left_knee
		{
			OFFSET	-28.2	-396.7	2.2
			CHANNELS 3  Xrotation Yrotation Zrotation
			JOINT left_ankle
			{
				OFFSET	-11.7	-411.3	35.4
				CHANNELS 3  Xrotation Yrotation Zrotation
				JOINT left_toes
				{
					OFFSET	0	-60	-88.6
					CHANNELS 3  Xrotation Yrotation Zrotation
					JOINT left_foot_ee
					{
						OFFSET	-22.5	-16.5	-42.2
						CHANNELS 3  Xrotation Yrotation Zrotation
						End Site
						{
							OFFSET	1	0	0
						}
					}
				}
			}
		}
	}
	JOINT right_hip
	{
		OFFSET	82.8	-127.5	0.300001
		CHANNELS 3  Xrotation Yrotation Zrotation
		JOINT right_knee
		{
			OFFSET	28.2	-396.7	2.2
			CHANNELS 3  Xrotation Yrotation Zrotation
			JOINT right_ankle
			{
				OFFSET	11.7	-411.3	35.4
				CHANNELS 3  Xrotation Yrotation Zrotation
				JOINT right_toes
				{
					OFFSET	0	-60	-88.6
					CHANNELS 3  Xrotation Yrotation Zrotation
					JOINT right_foot_ee
					{
						OFFSET	22.5	-16.5	-42.2
						CHANNELS 3  Xrotation Yrotation Zrotation
						End Site
						{
							OFFSET	1	0	0
						}
					}
				}
			}
		}
	}
}
MOTION
Frames: 7
Frame Time: 0.02
520.024666663 714.519 -1250.04561664 137.197373299 -70.0525153775 144.66278904 -6.46538 -0.831934 -3.30213 -6.45953 -0.620246 -3.3483 -6.40838 0.476829 -3.37169 -6.42424 -0.0613307 -3.40465 -0.0562821 -1.73586 8.52606 0.277356 -10.067 9.02601 -0.0 0.0 -0.0 12.1061 -13.9513 24.4719 -5.00514 -18.0559 55.537 0.486525 -13.5507 0.0578024 5.0662 0.150748 -0.629357 -1.63067 6.69646 -7.85906 -0.0 0.0 -0.0 1.42384 -2.14096 -2.94241 -5.05078 16.9309 -60.9289 1.43146 35.3385 -0.456012 -26.5884 1.65042 -2.9409 -0.359488 -18.0565 -5.14383 0.0 0.0 0.0 -15.6448 -0.233218 -5.6186 -12.0036 0.305212 1.81349 24.6768 6.35313 -3.29322 19.5084 -0.0 -0.0 -0.0 0.0 -0.0 6.8341 35.0232 -12.8422 -34.7215 0.16554 -5.24541 -5.47973 -22.2133 -0.834618 -31.4322 0.0 0.0 0.0 0.0 0.0 
530.231851816 714.651 -1246.51986921 143.271188498 -69.0757420807 151.359292105 -6.25401 -0.853372 -3.26759 -6.2483 -0.643835 -3.3152 -6.19669 0.431499 -3.34942 -6.21233 -0.102584 -3.37552 0.162374 -1.74339 6.59386 0.375127 -8.51133 6.94797 -0.0 0.0 -0.0 11.6227 -12.7455 23.4002 -5.14017 -17.6493 55.1381 0.664903 -18.2306 0.106683 4.62751 0.139904 -0.574367 -1.43876 6.09077 -6.87585 -0.0 0.0 -0.0 1.82187 1.52695 -3.37519 -7.12912 13.933 -61.6477 1.34202 33.6141 -0.405377 -26.2515 1.6213 -2.90901 -0.35152 -16.8398 -4.70184 0.0 0.0 0.0 -15.4991 0.0976171 -5.80595 -11.3851 0.298824 1.71881 24.8267 8.14939 -3.31169 18.9924 -0.0 -0.0 -0.0 0.0 -0.0 5.6921 37.8371 -12.2018 -25.7743 -0.18259 -3.91786 -5.59519 -20.6342 -0.847036 -31.4182 0.0 0.0 0.0 0.0 0.0 
544.455638721 715.074 -1241.25109556 143.44704576 -68.2112616763 152.115549943 -6.30187 -0.935352 -3.26853 -6.29622 -0.72559 -3.32135 -6.23939 0.358213 -3.38069 -6.25529 -0.179883 -3.39484 0.566665 -1.20901 3.43476 0.630497 -4.97985 3.60242 -0.0 0.0 -0.0 10.7516 -12.2723 21.4547 -5.54618 -17.4392 56.2018 0.941088 -24.9939 0.208587 4.18166 0.128451 -0.518565 -1.10624 6.12978 -4.674 -0.0 0.0 -0.0 2.39671 6.69372 -4.07022 -10.9124 8.92405 -62.6356 1.20716 30.878 -0.333403 -25.5808 1.56388 -2.84504 -0.29581 -15.7467 -4.60257 0.0 0.0 0.0 -16.2578 0.752402 -6.42354 -11.0111 0.294464 1.66159 24.2103 10.6604 -3.24626 17.7388 -0.0 -0.0 -0.0 0.0 -0.0 1.59253 39.3999 -5.78896 -14.6694 -0.32104 -2.22217 -6.06913 -18.4275 -0.912704 -31.5 0.0 0.0 0.0 0.0 0.0 
555.953550409 715.958 -1235.61212322 144.160426266 -68.325636095 152.919417918 -6.3058 -0.931325 -3.28579 -6.30008 -0.720474 -3.33831 -6.24321 0.368655 -3.39516 -6.25925 -0.171851 -3.41077 0.0903218 -0.687236 1.46844 0.10293 -2.42705 1.50902 -0.0 0.0 -0.0 11.0393 -11.7103 22.1071 -6.08424 -17.4243 54.378 1.04539 -27.3771 0.254624 3.92479 0.121655 -0.486457 -0.621 2.42456 -3.09996 -0.0 0.0 -0.0 2.52609 7.70576 -4.24689 -12.2196 6.98419 -64.2014 1.15443 29.7631 -0.306782 -26.2489 1.62108 -2.90877 -0.326335 -15.9086 -4.47963 0.0 0.0 0.0 -17.047 1.32501 -6.75941 -9.95489 0.280139 1.50016 23.7982 12.2116 -3.20459 15.9043 -0.0 -0.0 -0.0 0.0 -0.0 1.8569 39.4628 -4.90568 -11.2496 -0.297287 -1.69807 -0.680885 -15.8471 -0.100641 -32.14 0.0 0.0 0.0 0.0 0.0 
571.196214525 713.68 -1228.52782908 149.189306166 -66.0301768645 159.206972464 -6.01861 -0.51643 -3.28525 -6.01266 -0.306452 -3.31142 -5.98225 0.738954 -3.2425 -5.99685 0.217883 -3.31841 -0.663064 -0.484119 1.20543 -0.655463 -1.84307 1.23131 -0.0 0.0 -0.0 11.2279 -11.4576 22.5327 -6.66011 -17.6259 51.4871 1.4171 -35.0664 0.447731 3.5613 0.111793 -0.441072 -0.428901 0.025781 -2.85413 -0.0 0.0 -0.0 2.80091 11.3905 -4.49616 -15.2028 2.79653 -66.2568 1.12255 29.0765 -0.291119 -26.5889 1.65047 -2.94094 -0.0982958 -16.7954 -6.23789 0.0 0.0 0.0 -19.8119 3.67305 -7.85066 -6.38053 0.20963 0.956282 22.2555 11.6055 -3.01641 14.7008 -0.0 -0.0 -0.0 0.0 -0.0 4.14357 39.093 -4.64559 -1.94298 -0.0751109 -0.288707 3.38085 -14.4574 0.493381 -33.3565 0.0 0.0 0.0 0.0 0.0 
578.261288195 707.06 -1227.12453577 150.427436257 -64.1455286344 160.939405965 -5.79658 -0.223595 -3.45055 -5.78996 -0.00370797 -3.45778 -5.77765 1.061 -3.29117 -5.79238 0.528231 -3.41724 -1.56227 -0.20556 1.36624 -1.55478 -1.46131 1.41778 -0.0 0.0 -0.0 11.2814 -10.8621 22.6588 -5.02251 -18.185 50.2789 1.55519 -37.6079 0.52958 3.89548 0.120871 -0.482794 -0.420705 -0.212662 -2.90171 -0.0 0.0 -0.0 2.64566 11.2514 -4.18458 -15.5706 2.03428 -66.1509 1.08104 28.169 -0.271235 -27.2141 1.70501 -2.99965 -0.0213734 -16.5767 -6.62574 0.0 0.0 0.0 -20.8992 4.36846 -7.6661 -5.62216 0.190313 0.841503 22.4114 11.049 -3.03302 14.634 -0.0 -0.0 -0.0 0.0 -0.0 5.00716 38.8718 -4.69379 0.952325 0.0403851 0.140557 6.42512 -13.9252 0.928764 -33.5326 0.0 0.0 0.0 0.0 0.0 
591.591767584 702.356 -1222.98099216 151.308713696 -64.2676422797 162.227271405 -5.87056 -0.336495 -3.31089 -5.86447 -0.125252 -3.32557 -5.84538 0.908187 -3.20174 -5.85947 0.391426 -3.30485 -2.95558 0.10681 2.596 -2.93319 -1.83169 2.71765 -0.0 0.0 -0.0 10.8243 -10.1718 21.6465 -3.22064 -18.888 49.9582 1.75416 -40.9857 0.65565 3.83185 0.119161 -0.474846 -0.435959 -0.226585 -3.00974 -0.0 0.0 -0.0 2.85442 10.1843 -4.71153 -16.2792 3.36444 -65.6796 1.01555 26.7052 -0.241056 -27.9253 1.76784 -3.06572 0.141485 -15.4642 -7.203 0.0 0.0 0.0 -22.2939 5.13461 -8.04843 -4.96902 0.172459 0.742858 25.3388 8.8745 -3.37247 15.1117 -0.0 -0.0 -0.0 0.0 -0.0 6.38451 38.9887 -4.8666 3.50177 0.159962 0.513407 9.61955 -15.2815 1.38051 -33.6963 0.0 0.0 0.0 0.0 0.0 
